#!OML:ASF X:\für Bonn\!DataBase\2005_08_11_Bastian_Final\c3d\Bastian.ASF
:FULLY-SPECIFIED
:DEGREES
216
root 21.8836 15.6194 -5.65834 551.329 -131.78 -154.57
lowerback 68.3627 -0.11765 12.3558
upperback 17.1317 6.24835 4.05867
thorax -1.11988 2.78321 -2.79675
lowerneck -5.38212 -10.7294 4.95598
upperneck -28.3548 -13.2864 10.6689
head -7.54777 -8.50377 3.40608
rclavicle 5.40694e-014 -1.43125e-014
rhumerus 63.2875 -5.95332 -28.8431
rradius 21.3705
rwrist -25.1172
rhand -36.3284 -20.1373
rfingers 7.12502
rthumb -9.42666 -49.9065
lclavicle 5.40694e-014 -1.43125e-014
lhumerus -9.20001 -34.1314 94.2162
lradius 50.8977
lwrist 31.4767
lhand -12.9824 -16.5345
lfingers 7.12502
lthumb 13.1102 13.0334
rfemur -83.0209 -31.929 27.7484
rtibia 74.8832
rfoot -22.8547 -3.84694
rtoes 10.7462
lfemur -70.6329 -14.016 -34.654
ltibia 52.9952
lfoot -2.48915 -18.4818
ltoes -14.9976
217
root 21.8727 15.6041 -5.6707 551.568 -132.061 -154.576
lowerback 68.4298 -0.094738 12.3753
upperback 17.0856 6.3219 4.1091
thorax -1.16979 2.81231 -2.7743
lowerneck -5.34328 -10.7299 5.16239
upperneck -28.5211 -13.2459 10.7555
head -7.62531 -8.52229 3.41898
rclavicle -3.18055e-015 4.77083e-015
rhumerus 63.3897 -6.34785 -29.0371
rradius 21.3576
rwrist -25.3096
rhand -36.7542 -20.5231
rfingers 7.12502
rthumb -9.83752 -50.2733
lclavicle -3.18055e-015 4.77083e-015
lhumerus -9.34954 -34.1314 94.3321
lradius 50.8482
lwrist 31.4339
lhand -12.94 -16.5237
lfingers 7.12502
lthumb 13.151 13.0416
rfemur -83.4686 -32.1337 28.053
rtibia 75.0758
rfoot -22.9592 -3.86495
rtoes 10.7828
lfemur -70.9169 -14.1565 -34.6421
ltibia 53.1366
lfoot -2.5016 -18.6634
ltoes -15.1082
218
root 21.8629 15.5885 -5.68321 551.785 -132.325 -154.565
lowerback 68.4632 -0.0639986 12.3989
upperback 17.0716 6.39585 4.16441
thorax -1.18452 2.84453 -2.74854
lowerneck -5.32054 -10.7333 5.37989
upperneck -28.7199 -13.2159 10.8184
head -7.71444 -8.54787 3.42493
rclavicle 2.8625e-014 6.36111e-015
rhumerus 63.421 -6.80373 -29.3671
rradius 21.4807
rwrist -25.3464
rhand -37.1162 -20.8664
rfingers 7.12502
rthumb -10.1868 -50.5997
lclavicle 2.8625e-014 6.36111e-015
lhumerus -9.45107 -34.1181 94.4321
lradius 50.7885
lwrist 31.3402
lhand -12.8252 -16.4582
lfingers 7.12502
lthumb 13.2617 13.0999
rfemur -83.8718 -32.2921 28.287
rtibia 75.2568
rfoot -23.0467 -3.88439
rtoes 10.959
lfemur -71.1935 -14.303 -34.6205
ltibia 53.2672
lfoot -2.47208 -18.8346
ltoes -15.1007
219
root 21.8526 15.5759 -5.69487 552.012 -132.606 -154.58
lowerback 68.5436 -0.0792108 12.4495
upperback 17.0053 6.45069 4.18447
thorax -1.24958 2.86886 -2.76443
lowerneck -5.22443 -10.7434 5.59066
upperneck -28.9121 -13.1734 10.9337
head -7.80961 -8.5705 3.45268
rclavicle 2.22639e-014 -1.11319e-014
rhumerus 63.439 -7.19415 -29.708
rradius 21.5665
rwrist -25.4432
rhand -37.5374 -21.1509
rfingers 7.12502
rthumb -10.593 -50.8639
lclavicle 2.22639e-014 -1.11319e-014
lhumerus -9.67098 -34.0974 94.5186
lradius 50.7703
lwrist 31.2386
lhand -12.6886 -16.3873
lfingers 7.12502
lthumb 13.3934 13.1622
rfemur -84.2595 -32.4628 28.5397
rtibia 75.4254
rfoot -23.138 -3.94445
rtoes 10.9134
lfemur -71.4555 -14.4724 -34.566
ltibia 53.382
lfoot -2.43568 -18.9929
ltoes -14.9778
220
root 21.8433 15.5634 -5.70607 552.209 -132.893 -154.614
lowerback 68.6544 -0.130341 12.5225
upperback 16.94 6.48252 4.18732
thorax -1.30705 2.88583 -2.79717
lowerneck -5.14643 -10.7559 5.74199
upperneck -29.0646 -13.1253 11.098
head -7.87902 -8.58675 3.49972
rclavicle 1.27222e-014 3.18055e-014
rhumerus 63.4959 -7.56359 -30.0631
rradius 21.5878
rwrist -25.4462
rhand -37.9674 -21.4254
rfingers 7.12502
rthumb -11.0078 -51.1168
lclavicle 1.27222e-014 3.18055e-014
lhumerus -9.92888 -34.0851 94.5789
lradius 50.7781
lwrist 31.0996
lhand -12.5511 -16.3158
lfingers 7.12502
lthumb 13.5259 13.2249
rfemur -84.5532 -32.6284 28.7411
rtibia 75.5834
rfoot -23.2338 -3.9825
rtoes 11.0911
lfemur -71.6527 -14.606 -34.5488
ltibia 53.4887
lfoot -2.40317 -19.1678
ltoes -14.8788
221
root 21.8331 15.5508 -5.71821 552.411 -133.171 -154.606
lowerback 68.7509 -0.166031 12.546
upperback 16.8621 6.50355 4.20133
thorax -1.38907 2.8923 -2.79641
lowerneck -5.08581 -10.7732 5.79067
upperneck -29.1664 -13.0835 11.2932
head -7.91567 -8.59592 3.56582
rclavicle -7.63333e-014 4.45278e-014
rhumerus 63.566 -7.87042 -30.3476
rradius 21.631
rwrist -25.4712
rhand -38.419 -21.7345
rfingers 7.12502
rthumb -11.4434 -51.4021
lclavicle -7.63333e-014 4.45278e-014
lhumerus -10.2042 -34.0214 94.6608
lradius 50.8156
lwrist 30.9981
lhand -12.3733 -16.1777
lfingers 7.12502
lthumb 13.6973 13.3515
rfemur -84.9049 -32.7797 28.955
rtibia 75.7335
rfoot -23.3279 -4.05613
rtoes 11.0477
lfemur -71.8834 -14.7539 -34.5309
ltibia 53.5891
lfoot -2.39753 -19.3309
ltoes -14.9384
222
root 21.8242 15.5402 -5.72938 552.611 -133.444 -154.664
lowerback 68.8693 -0.252383 12.6381
upperback 16.8012 6.50774 4.19043
thorax -1.4373 2.89906 -2.84011
lowerneck -5.07446 -10.7894 5.82442
upperneck -29.2721 -13.044 11.4953
head -7.94353 -8.60621 3.63333
rclavicle 6.36111e-015 4.45278e-014
rhumerus 63.657 -8.1715 -30.6076
rradius 21.6305
rwrist -25.4684
rhand -38.878 -21.9699
rfingers 7.12502
rthumb -11.886 -51.6125
lclavicle 6.36111e-015 4.45278e-014
lhumerus -10.3684 -33.9937 94.6991
lradius 50.7677
lwrist 30.9009
lhand -12.1943 -16.1123
lfingers 7.12502
lthumb 13.8698 13.4052
rfemur -85.1545 -32.9104 29.1414
rtibia 75.8798
rfoot -23.4376 -4.15291
rtoes 11.0781
lfemur -72.0712 -14.8979 -34.4604
ltibia 53.6824
lfoot -2.33743 -19.4839
ltoes -14.7266
223
root 21.8149 15.5293 -5.73954 552.837 -133.713 -154.705
lowerback 68.9322 -0.350514 12.7324
upperback 16.7465 6.4936 4.1746
thorax -1.48085 2.89949 -2.88557
lowerneck -5.08956 -10.826 5.70658
upperneck -29.3077 -13.0189 11.7958
head -7.91984 -8.61286 3.74587
rclavicle 0 -2.8625e-014
rhumerus 63.7561 -8.43197 -30.8112
rradius 21.5925
rwrist -25.4577
rhand -39.3081 -22.2368
rfingers 7.12502
rthumb -12.3008 -51.855
lclavicle 0 -2.8625e-014
lhumerus -10.4758 -33.965 94.754
lradius 50.6405
lwrist 30.8149
lhand -12.0067 -16.0326
lfingers 7.12502
lthumb 14.0505 13.4724
rfemur -85.4588 -33.0418 29.3507
rtibia 76.0146
rfoot -23.5225 -4.19932
rtoes 11.1582
lfemur -72.2988 -15.057 -34.3942
ltibia 53.7726
lfoot -2.33083 -19.6282
ltoes -14.8304
224
root 21.8068 15.5185 -5.75042 553.041 -134.008 -154.755
lowerback 69.0042 -0.484825 12.8401
upperback 16.6931 6.45127 4.15128
thorax -1.52052 2.88897 -2.93274
lowerneck -5.10934 -10.8579 5.59025
upperneck -29.3448 -12.9922 12.0826
head -7.89707 -8.61796 3.85364
rclavicle 6.99722e-014 -2.54444e-014
rhumerus 63.8573 -8.65885 -30.9753
rradius 21.5886
rwrist -25.508
rhand -39.7749 -22.4474
rfingers 7.12502
rthumb -12.7508 -52.0381
lclavicle 6.99722e-014 -2.54444e-014
lhumerus -10.5924 -33.8984 94.7959
lradius 50.5489
lwrist 30.758
lhand -11.791 -15.932
lfingers 7.12502
lthumb 14.2584 13.5586
rfemur -85.7408 -33.1897 29.5554
rtibia 76.1491
rfoot -23.6107 -4.29322
rtoes 11.2065
lfemur -72.4857 -15.2181 -34.3394
ltibia 53.8554
lfoot -2.32284 -19.7737
ltoes -14.9616
225
root 21.7985 15.51 -5.76067 553.25 -134.271 -154.794
lowerback 69.0844 -0.616454 12.9399
upperback 16.6241 6.40782 4.10776
thorax -1.57651 2.87838 -2.99934
lowerneck -5.17665 -10.906 5.46839
upperneck -29.3354 -12.9991 12.3612
head -7.84885 -8.63517 3.95369
rclavicle -4.13472e-014 -4.13472e-014
rhumerus 63.9587 -8.86882 -31.2227
rradius 21.5599
rwrist -25.4638
rhand -40.2531 -22.5921
rfingers 7.12502
rthumb -13.2118 -52.1535
lclavicle -4.13472e-014 -4.13472e-014
lhumerus -10.7049 -33.8224 94.8228
lradius 50.4246
lwrist 30.6981
lhand -11.5706 -15.8699
lfingers 7.12502
lthumb 14.4708 13.6055
rfemur -85.9949 -33.2922 29.7198
rtibia 76.2705
rfoot -23.6953 -4.37184
rtoes 11.371
lfemur -72.6743 -15.3511 -34.292
ltibia 53.9285
lfoot -2.30155 -19.9412
ltoes -14.9586
226
root 21.7906 15.5005 -5.77081 553.492 -134.536 -154.869
lowerback 69.1356 -0.755909 13.0544
upperback 16.5594 6.36162 4.07619
thorax -1.62838 2.86546 -3.05806
lowerneck -5.20916 -10.973 5.26425
upperneck -29.3387 -13.0242 12.6764
head -7.79934 -8.65758 4.08055
rclavicle -1.36764e-013 -2.54444e-014
rhumerus 64.0708 -9.01291 -31.3233
rradius 21.5193
rwrist -25.4816
rhand -40.6806 -22.7479
rfingers 7.12502
rthumb -13.6238 -52.2821
lclavicle -1.36764e-013 -2.54444e-014
lhumerus -10.8151 -33.7679 94.8869
lradius 50.2812
lwrist 30.6277
lhand -11.3739 -15.7816
lfingers 7.12502
lthumb 14.6602 13.6802
rfemur -86.2586 -33.3849 29.9161
rtibia 76.3843
rfoot -23.7847 -4.45718
rtoes 11.4718
lfemur -72.8974 -15.499 -34.1925
ltibia 54.0003
lfoot -2.24173 -20.0859
ltoes -14.8526
227
root 21.7824 15.492 -5.78109 553.697 -134.782 -154.906
lowerback 69.2059 -0.903649 13.1405
upperback 16.4851 6.29056 4.0148
thorax -1.69228 2.84296 -3.1295
lowerneck -5.2616 -11.0045 5.1128
upperneck -29.3169 -13.0135 12.935
head -7.74823 -8.66014 4.1773
rclavicle 7.63333e-014 -7.31528e-014
rhumerus 64.1917 -9.14119 -31.5199
rradius 21.4726
rwrist -25.4397
rhand -41.1384 -22.7687
rfingers 7.12502
rthumb -14.065 -52.2727
lclavicle 7.63333e-014 -7.31528e-014
lhumerus -10.9318 -33.6892 94.9048
lradius 50.1524
lwrist 30.5619
lhand -11.205 -15.7287
lfingers 7.12502
lthumb 14.823 13.7212
rfemur -86.5164 -33.4674 30.0885
rtibia 76.4957
rfoot -23.8532 -4.57066
rtoes 11.4876
lfemur -73.0896 -15.6296 -34.1379
ltibia 54.0599
lfoot -2.21112 -20.2021
ltoes -14.8475
228
root 21.7745 15.4831 -5.79027 553.914 -135.034 -154.939
lowerback 69.2321 -1.05827 13.2237
upperback 16.4144 6.20539 3.95447
thorax -1.75575 2.8144 -3.19546
lowerneck -5.27742 -11.039 4.89539
upperneck -29.2923 -12.9919 13.2476
head -7.69206 -8.65536 4.30208
rclavicle -3.81667e-014 2.8625e-014
rhumerus 64.3201 -9.22335 -31.732
rradius 21.4203
rwrist -25.3551
rhand -41.5826 -22.7815
rfingers 7.12502
rthumb -14.493 -52.2553
lclavicle -3.81667e-014 2.8625e-014
lhumerus -11.0837 -33.5876 94.9398
lradius 50.0407
lwrist 30.5034
lhand -11.0531 -15.6909
lfingers 7.12502
lthumb 14.9693 13.7481
rfemur -86.791 -33.5631 30.2638
rtibia 76.6044
rfoot -23.9404 -4.64025
rtoes 11.6695
lfemur -73.2903 -15.7636 -34.0866
ltibia 54.12
lfoot -2.16957 -20.3623
ltoes -14.9844
229
root 21.7672 15.4749 -5.79974 554.136 -135.293 -155.01
lowerback 69.2892 -1.24583 13.3657
upperback 16.3347 6.12663 3.89218
thorax -1.81827 2.79048 -3.28581
lowerneck -5.3172 -11.084 4.66449
upperneck -29.2711 -12.9934 13.5421
head -7.63212 -8.65915 4.42216
rclavicle -1.90833e-014 3.18055e-015
rhumerus 64.4458 -9.32631 -31.9686
rradius 21.3362
rwrist -25.2186
rhand -42.0128 -22.6243
rfingers 7.12502
rthumb -14.9075 -52.0679
lclavicle -1.90833e-014 3.18055e-015
lhumerus -11.2208 -33.4849 95.0052
lradius 49.9023
lwrist 30.34
lhand -10.8858 -15.6872
lfingers 7.12502
lthumb 15.1305 13.7397
rfemur -87.0054 -33.6372 30.4261
rtibia 76.6986
rfoot -24.011 -4.74341
rtoes 11.7446
lfemur -73.4793 -15.9058 -33.9883
ltibia 54.1658
lfoot -2.09837 -20.5011
ltoes -14.8619
230
root 21.759 15.4691 -5.80885 554.355 -135.544 -155.078
lowerback 69.3055 -1.46077 13.5486
upperback 16.2767 6.03002 3.78277
thorax -1.84746 2.77049 -3.43816
lowerneck -5.36431 -11.1306 4.4602
upperneck -29.247 -12.985 13.8755
head -7.56965 -8.6635 4.54981
rclavicle 6.36111e-014 -3.18055e-015
rhumerus 64.5366 -9.48907 -32.3451
rradius 21.256
rwrist -24.9515
rhand -42.3912 -22.4496
rfingers 7.12502
rthumb -15.272 -51.8658
lclavicle 6.36111e-014 -3.18055e-015
lhumerus -11.3001 -33.453 94.9725
lradius 49.7403
lwrist 30.2463
lhand -10.7183 -15.6865
lfingers 7.12502
lthumb 15.2919 13.7281
rfemur -87.203 -33.7001 30.5724
rtibia 76.7838
rfoot -24.1045 -4.84509
rtoes 11.933
lfemur -73.6531 -16.0258 -33.9204
ltibia 54.208
lfoot -2.07258 -20.6602
ltoes -14.9509
